<svg xmlns="http://www.w3.org/2000/svg" xmlns:xlink="http://www.w3.org/1999/xlink" contentStyleType="text/css" data-diagram-type="ACTIVITY" height="893.18px" preserveAspectRatio="none" style="width:806px;height:893px;background:#FFFFFF;" version="1.1" viewBox="0 0 806 893" width="806.56px" zoomAndPan="magnify"><defs/><g><rect fill="none" height="16.9984" style="stroke:none;stroke-width:0.71;" width="783.2957" x="10.65" y="9.2425"/><ellipse cx="73.8726" cy="36.8909" fill="#222222" rx="7.1" ry="7.1" style="stroke:#222222;stroke-width:0.71;"/><rect fill="#F1F1F1" height="25.5323" rx="8.875" ry="8.875" style="stroke:#181818;stroke-width:0.355;" width="89.9564" x="28.8944" y="58.1909"/><text fill="#000000" font-family="sans-serif" font-size="8.52" lengthAdjust="spacing" textLength="75.7564" x="35.9944" y="74.4848">Start Hiring Process</text><rect fill="#F1F1F1" height="25.5323" rx="8.875" ry="8.875" style="stroke:#181818;stroke-width:0.355;" width="117.9252" x="14.91" y="750.3598"/><text fill="#000000" font-family="sans-serif" font-size="8.52" lengthAdjust="spacing" textLength="103.7252" x="22.01" y="766.6537">Add Employee to Database</text><rect fill="#F1F1F1" height="25.5323" rx="8.875" ry="8.875" style="stroke:#181818;stroke-width:0.355;" width="87.1234" x="30.3109" y="829.8243"/><text fill="#000000" font-family="sans-serif" font-size="8.52" lengthAdjust="spacing" textLength="72.9234" x="37.4109" y="846.1182">End Hiring Process</text><ellipse cx="73.8726" cy="877.3666" fill="none" rx="7.81" ry="7.81" style="stroke:#222222;stroke-width:0.71;"/><ellipse cx="73.8726" cy="877.3666" fill="#222222" rx="4.26" ry="4.26" style="stroke:#222222;stroke-width:0.71;"/><line style="stroke:#000000;stroke-width:1.065;" x1="10.65" x2="10.65" y1="9.2425" y2="885.1766"/><rect fill="#F1F1F1" height="25.5323" rx="8.875" ry="8.875" style="stroke:#181818;stroke-width:0.355;" width="89.9772" x="155.5586" y="97.9231"/><text fill="#000000" font-family="sans-serif" font-size="8.52" lengthAdjust="spacing" textLength="75.7772" x="162.6586" y="114.2171">Create Job Request</text><rect fill="#F1F1F1" height="25.5323" rx="8.875" ry="8.875" style="stroke:#181818;stroke-width:0.355;" width="136.8456" x="200.0539" y="208.6277"/><text fill="#000000" font-family="sans-serif" font-size="8.52" lengthAdjust="spacing" textLength="122.6456" x="207.1539" y="224.9216">Receive Notification for Revision</text><ellipse cx="268.4767" cy="256.1699" fill="none" rx="7.81" ry="7.81" style="stroke:#222222;stroke-width:0.71;"/><ellipse cx="268.4767" cy="256.1699" fill="#222222" rx="4.26" ry="4.26" style="stroke:#222222;stroke-width:0.71;"/><rect fill="#F1F1F1" height="25.5323" rx="8.875" ry="8.875" style="stroke:#181818;stroke-width:0.355;" width="121.2242" x="139.9352" y="535.089"/><text fill="#000000" font-family="sans-serif" font-size="8.52" lengthAdjust="spacing" textLength="107.0242" x="147.0352" y="551.3829">Conduct Technical Interview</text><polygon fill="#F1F1F1" points="162.7824,574.8213,238.3121,574.8213,246.8321,583.3413,238.3121,591.8613,162.7824,591.8613,154.2624,583.3413,162.7824,574.8213" style="stroke:#181818;stroke-width:0.355;"/><text fill="#000000" font-family="sans-serif" font-size="7.81" lengthAdjust="spacing" textLength="75.5297" x="162.7824" y="586.5751">Interview Successful?</text><text fill="#000000" font-family="sans-serif" font-size="7.81" lengthAdjust="spacing" textLength="13.4578" x="140.8046" y="581.3811">Yes</text><text fill="#000000" font-family="sans-serif" font-size="7.81" lengthAdjust="spacing" textLength="9.9837" x="246.8321" y="581.3811">No</text><line style="stroke:#000000;stroke-width:1.065;" x1="135.6752" x2="135.6752" y1="9.2425" y2="885.1766"/><rect fill="#F1F1F1" height="25.5323" rx="8.875" ry="8.875" style="stroke:#181818;stroke-width:0.355;" width="92.3402" x="443.9098" y="137.6554"/><text fill="#000000" font-family="sans-serif" font-size="8.52" lengthAdjust="spacing" textLength="78.1402" x="451.0098" y="153.9494">Review Job Request</text><polygon fill="#F1F1F1" points="437.7705,177.3877,542.3894,177.3877,550.9094,185.9077,542.3894,194.4277,437.7705,194.4277,429.2505,185.9077,437.7705,177.3877" style="stroke:#181818;stroke-width:0.355;"/><text fill="#000000" font-family="sans-serif" font-size="7.81" lengthAdjust="spacing" textLength="104.6189" x="437.7705" y="189.1415">Request meets requirements?</text><text fill="#000000" font-family="sans-serif" font-size="7.81" lengthAdjust="spacing" textLength="13.4578" x="415.7927" y="183.9475">Yes</text><text fill="#000000" font-family="sans-serif" font-size="7.81" lengthAdjust="spacing" textLength="9.9837" x="550.9094" y="183.9475">No</text><rect fill="#F1F1F1" height="25.5323" rx="8.875" ry="8.875" style="stroke:#181818;stroke-width:0.355;" width="80.0345" x="382.1332" y="208.6277"/><text fill="#000000" font-family="sans-serif" font-size="8.52" lengthAdjust="spacing" textLength="65.8345" x="389.2332" y="224.9216">Approve Request</text><rect fill="#555555" height="4.26" rx="1.775" ry="1.775" style="stroke:#555555;stroke-width:0.71;" width="243.1438" x="343.9995" y="278.1799"/><rect fill="#F1F1F1" height="25.5323" rx="8.875" ry="8.875" style="stroke:#181818;stroke-width:0.355;" width="166.2163" x="352.5195" y="296.6399"/><text fill="#000000" font-family="sans-serif" font-size="8.52" lengthAdjust="spacing" textLength="152.0163" x="359.6195" y="312.9339">Post Job Vacancy on Company Website</text><rect fill="#F1F1F1" height="25.5323" rx="8.875" ry="8.875" style="stroke:#181818;stroke-width:0.355;" width="131.6537" x="424.2531" y="354.8322"/><text fill="#000000" font-family="sans-serif" font-size="8.52" lengthAdjust="spacing" textLength="117.4537" x="431.3531" y="371.1262">Review Candidate Applications</text><polygon fill="#F1F1F1" points="454.2599,394.5645,525.8999,394.5645,534.4199,403.0845,525.8999,411.6045,454.2599,411.6045,445.7399,403.0845,454.2599,394.5645" style="stroke:#181818;stroke-width:0.355;"/><text fill="#000000" font-family="sans-serif" font-size="7.81" lengthAdjust="spacing" textLength="71.64" x="454.2599" y="406.3183">Application suitable?</text><text fill="#000000" font-family="sans-serif" font-size="7.81" lengthAdjust="spacing" textLength="13.4578" x="432.2822" y="401.1243">Yes</text><text fill="#000000" font-family="sans-serif" font-size="7.81" lengthAdjust="spacing" textLength="9.9837" x="534.4199" y="401.1243">No</text><rect fill="#F1F1F1" height="25.5323" rx="8.875" ry="8.875" style="stroke:#181818;stroke-width:0.355;" width="124.544" x="357.7266" y="425.8045"/><text fill="#000000" font-family="sans-serif" font-size="8.52" lengthAdjust="spacing" textLength="110.344" x="364.8266" y="442.0984">Invite Candidate for Interview</text><rect fill="#F1F1F1" height="25.5323" rx="8.875" ry="8.875" style="stroke:#181818;stroke-width:0.355;" width="104.6501" x="437.7549" y="495.3567"/><text fill="#000000" font-family="sans-serif" font-size="8.52" lengthAdjust="spacing" textLength="90.4501" x="444.8549" y="511.6507">Conduct Initial Interview</text><rect fill="#F1F1F1" height="25.5323" rx="8.875" ry="8.875" style="stroke:#181818;stroke-width:0.355;" width="71.5062" x="397.505" y="606.0613"/><text fill="#000000" font-family="sans-serif" font-size="8.52" lengthAdjust="spacing" textLength="57.3062" x="404.605" y="622.3552">Send Job Offer</text><rect fill="#F1F1F1" height="25.5323" rx="8.875" ry="8.875" style="stroke:#181818;stroke-width:0.355;" width="177.0868" x="401.5365" y="790.092"/><text fill="#000000" font-family="sans-serif" font-size="8.52" lengthAdjust="spacing" textLength="162.8868" x="408.6365" y="806.386">Notify IT Department for Workstation Setup</text><ellipse cx="542.657" cy="723.8658" fill="none" rx="7.81" ry="7.81" style="stroke:#222222;stroke-width:0.71;"/><ellipse cx="542.657" cy="723.8658" fill="#222222" rx="4.26" ry="4.26" style="stroke:#222222;stroke-width:0.71;"/><line style="stroke:#000000;stroke-width:1.065;" x1="339.7395" x2="339.7395" y1="9.2425" y2="885.1766"/><rect fill="#F1F1F1" height="25.5323" rx="8.875" ry="8.875" style="stroke:#181818;stroke-width:0.355;" width="89.0246" x="692.4958" y="296.6399"/><text fill="#000000" font-family="sans-serif" font-size="8.52" lengthAdjust="spacing" textLength="74.8246" x="699.5958" y="312.9339">Submit Applications</text><rect fill="#555555" height="4.26" rx="1.775" ry="1.775" style="stroke:#555555;stroke-width:0.71;" width="195.7971" x="594.2433" y="336.3722"/><rect fill="#F1F1F1" height="25.5323" rx="8.875" ry="8.875" style="stroke:#181818;stroke-width:0.355;" width="127.3812" x="650.3506" y="425.8045"/><text fill="#000000" font-family="sans-serif" font-size="8.52" lengthAdjust="spacing" textLength="113.1812" x="657.4506" y="442.0984">Receive Rejection Notification</text><ellipse cx="714.0412" cy="473.3467" fill="none" rx="7.81" ry="7.81" style="stroke:#222222;stroke-width:0.71;"/><ellipse cx="714.0412" cy="473.3467" fill="#222222" rx="4.26" ry="4.26" style="stroke:#222222;stroke-width:0.71;"/><rect fill="#F1F1F1" height="25.5323" rx="8.875" ry="8.875" style="stroke:#181818;stroke-width:0.355;" width="127.3812" x="637.0912" y="606.0613"/><text fill="#000000" font-family="sans-serif" font-size="8.52" lengthAdjust="spacing" textLength="113.1812" x="644.1912" y="622.3552">Receive Rejection Notification</text><ellipse cx="700.7818" cy="653.6035" fill="none" rx="7.81" ry="7.81" style="stroke:#222222;stroke-width:0.71;"/><ellipse cx="700.7818" cy="653.6035" fill="#222222" rx="4.26" ry="4.26" style="stroke:#222222;stroke-width:0.71;"/><rect fill="#F1F1F1" height="25.5323" rx="8.875" ry="8.875" style="stroke:#181818;stroke-width:0.355;" width="82.3933" x="602.7633" y="675.6135"/><text fill="#000000" font-family="sans-serif" font-size="8.52" lengthAdjust="spacing" textLength="68.1933" x="609.8633" y="691.9075">Accept Job Offer?</text><polygon fill="#F1F1F1" points="625.5065,715.3458,662.4134,715.3458,670.9334,723.8658,662.4134,732.3858,625.5065,732.3858,616.9865,723.8658,625.5065,715.3458" style="stroke:#181818;stroke-width:0.355;"/><text fill="#000000" font-family="sans-serif" font-size="7.81" lengthAdjust="spacing" textLength="13.4578" x="646.7999" y="740.8136">Yes</text><text fill="#000000" font-family="sans-serif" font-size="7.81" lengthAdjust="spacing" textLength="36.9068" x="625.5065" y="727.0996">Accepted?</text><text fill="#000000" font-family="sans-serif" font-size="7.81" lengthAdjust="spacing" textLength="9.9837" x="670.9334" y="721.9057">No</text><line style="stroke:#000000;stroke-width:1.065;" x1="589.9833" x2="589.9833" y1="9.2425" y2="885.1766"/><line style="stroke:#000000;stroke-width:1.065;" x1="792.8804" x2="792.8804" y1="9.2425" y2="885.1766"/><line style="stroke:#181818;stroke-width:0.71;" x1="73.8726" x2="73.8726" y1="43.9909" y2="58.1909"/><polygon fill="#181818" points="71.0326,51.0909,73.8726,58.1909,76.7126,51.0909,73.8726,53.9309" style="stroke:#181818;stroke-width:0.71;"/><line style="stroke:#181818;stroke-width:0.71;" x1="73.8726" x2="73.8726" y1="855.3566" y2="869.5566"/><polygon fill="#181818" points="71.0326,862.4566,73.8726,869.5566,76.7126,862.4566,73.8726,865.2966" style="stroke:#181818;stroke-width:0.71;"/><line style="stroke:#181818;stroke-width:0.71;" x1="268.4767" x2="268.4767" y1="234.1599" y2="248.3599"/><polygon fill="#181818" points="265.6367,241.2599,268.4767,248.3599,271.3167,241.2599,268.4767,244.0999" style="stroke:#181818;stroke-width:0.71;"/><line style="stroke:#181818;stroke-width:0.71;" x1="200.5473" x2="200.5473" y1="560.6213" y2="574.8213"/><polygon fill="#181818" points="197.7073,567.7213,200.5473,574.8213,203.3873,567.7213,200.5473,570.5613" style="stroke:#181818;stroke-width:0.71;"/><line style="stroke:#181818;stroke-width:0.71;" x1="429.2505" x2="422.1505" y1="185.9077" y2="185.9077"/><line style="stroke:#181818;stroke-width:0.71;" x1="422.1505" x2="422.1505" y1="185.9077" y2="208.6277"/><polygon fill="#181818" points="419.3105,201.5277,422.1505,208.6277,424.9905,201.5277,422.1505,204.3677" style="stroke:#181818;stroke-width:0.71;"/><line style="stroke:#181818;stroke-width:0.71;" x1="422.1505" x2="422.1505" y1="234.1599" y2="267.5299"/><line style="stroke:#181818;stroke-width:0.71;" x1="422.1505" x2="490.0799" y1="267.5299" y2="267.5299"/><line style="stroke:#181818;stroke-width:0.71;" x1="490.0799" x2="490.0799" y1="267.5299" y2="278.1799"/><polygon fill="#181818" points="487.2399,271.0799,490.0799,278.1799,492.9199,271.0799,490.0799,273.9199" style="stroke:#181818;stroke-width:0.71;"/><line style="stroke:#181818;stroke-width:0.71;" x1="490.0799" x2="490.0799" y1="163.1877" y2="177.3877"/><polygon fill="#181818" points="487.2399,170.2877,490.0799,177.3877,492.9199,170.2877,490.0799,173.1277" style="stroke:#181818;stroke-width:0.71;"/><line style="stroke:#181818;stroke-width:0.71;" x1="435.6276" x2="435.6276" y1="282.4399" y2="296.6399"/><polygon fill="#181818" points="432.7876,289.5399,435.6276,296.6399,438.4676,289.5399,435.6276,292.3799" style="stroke:#181818;stroke-width:0.71;"/><line style="stroke:#181818;stroke-width:0.71;" x1="445.7399" x2="419.9986" y1="403.0845" y2="403.0845"/><line style="stroke:#181818;stroke-width:0.71;" x1="419.9986" x2="419.9986" y1="403.0845" y2="425.8045"/><polygon fill="#181818" points="417.1586,418.7045,419.9986,425.8045,422.8386,418.7045,419.9986,421.5445" style="stroke:#181818;stroke-width:0.71;"/><line style="stroke:#181818;stroke-width:0.71;" x1="419.9986" x2="419.9986" y1="451.3367" y2="484.7067"/><line style="stroke:#181818;stroke-width:0.71;" x1="419.9986" x2="490.0799" y1="484.7067" y2="484.7067"/><line style="stroke:#181818;stroke-width:0.71;" x1="490.0799" x2="490.0799" y1="484.7067" y2="495.3567"/><polygon fill="#181818" points="487.2399,488.2567,490.0799,495.3567,492.9199,488.2567,490.0799,491.0967" style="stroke:#181818;stroke-width:0.71;"/><line style="stroke:#181818;stroke-width:0.71;" x1="490.0799" x2="490.0799" y1="380.3645" y2="394.5645"/><polygon fill="#181818" points="487.2399,387.4645,490.0799,394.5645,492.9199,387.4645,490.0799,390.3045" style="stroke:#181818;stroke-width:0.71;"/><line style="stroke:#181818;stroke-width:0.71;" x1="490.0799" x2="490.0799" y1="815.6243" y2="819.1743"/><line style="stroke:#181818;stroke-width:0.71;" x1="490.0799" x2="73.8726" y1="819.1743" y2="819.1743"/><line style="stroke:#181818;stroke-width:0.71;" x1="73.8726" x2="73.8726" y1="819.1743" y2="829.8243"/><polygon fill="#181818" points="71.0326,822.7243,73.8726,829.8243,76.7126,822.7243,73.8726,825.5643" style="stroke:#181818;stroke-width:0.71;"/><line style="stroke:#181818;stroke-width:0.71;" x1="737.0081" x2="737.0081" y1="322.1722" y2="336.3722"/><polygon fill="#181818" points="734.1681,329.2722,737.0081,336.3722,739.8481,329.2722,737.0081,332.1122" style="stroke:#181818;stroke-width:0.71;"/><line style="stroke:#181818;stroke-width:0.71;" x1="714.0412" x2="714.0412" y1="451.3367" y2="465.5367"/><polygon fill="#181818" points="711.2012,458.4367,714.0412,465.5367,716.8812,458.4367,714.0412,461.2767" style="stroke:#181818;stroke-width:0.71;"/><line style="stroke:#181818;stroke-width:0.71;" x1="700.7818" x2="700.7818" y1="631.5935" y2="645.7935"/><polygon fill="#181818" points="697.9418,638.6935,700.7818,645.7935,703.6218,638.6935,700.7818,641.5335" style="stroke:#181818;stroke-width:0.71;"/><line style="stroke:#181818;stroke-width:0.71;" x1="643.9599" x2="643.9599" y1="701.1458" y2="715.3458"/><polygon fill="#181818" points="641.1199,708.2458,643.9599,715.3458,646.7999,708.2458,643.9599,711.0858" style="stroke:#181818;stroke-width:0.71;"/><line style="stroke:#181818;stroke-width:0.71;" x1="73.8726" x2="73.8726" y1="83.7231" y2="87.2731"/><line style="stroke:#181818;stroke-width:0.71;" x1="73.8726" x2="200.5473" y1="87.2731" y2="87.2731"/><line style="stroke:#181818;stroke-width:0.71;" x1="200.5473" x2="200.5473" y1="87.2731" y2="97.9231"/><polygon fill="#181818" points="197.7073,90.8231,200.5473,97.9231,203.3873,90.8231,200.5473,93.6631" style="stroke:#181818;stroke-width:0.71;"/><line style="stroke:#181818;stroke-width:0.71;" x1="200.5473" x2="200.5473" y1="123.4554" y2="127.0054"/><line style="stroke:#181818;stroke-width:0.71;" x1="200.5473" x2="490.0799" y1="127.0054" y2="127.0054"/><line style="stroke:#181818;stroke-width:0.71;" x1="490.0799" x2="490.0799" y1="127.0054" y2="137.6554"/><polygon fill="#181818" points="487.2399,130.5554,490.0799,137.6554,492.9199,130.5554,490.0799,133.3954" style="stroke:#181818;stroke-width:0.71;"/><line style="stroke:#181818;stroke-width:0.71;" x1="550.9094" x2="559.4294" y1="185.9077" y2="185.9077"/><line style="stroke:#181818;stroke-width:0.71;" x1="559.4294" x2="559.4294" y1="185.9077" y2="198.6877"/><line style="stroke:#181818;stroke-width:0.71;" x1="559.4294" x2="268.4767" y1="198.6877" y2="198.6877"/><line style="stroke:#181818;stroke-width:0.71;" x1="268.4767" x2="268.4767" y1="198.6877" y2="208.6277"/><polygon fill="#181818" points="265.6367,201.5277,268.4767,208.6277,271.3167,201.5277,268.4767,204.3677" style="stroke:#181818;stroke-width:0.71;"/><line style="stroke:#181818;stroke-width:0.71;" x1="582.1733" x2="582.1733" y1="282.4399" y2="285.2799"/><line style="stroke:#181818;stroke-width:0.71;" x1="582.1733" x2="737.0081" y1="285.2799" y2="285.2799"/><line style="stroke:#181818;stroke-width:0.71;" x1="737.0081" x2="737.0081" y1="285.2799" y2="296.6399"/><polygon fill="#181818" points="734.1681,289.5399,737.0081,296.6399,739.8481,289.5399,737.0081,292.3799" style="stroke:#181818;stroke-width:0.71;"/><line style="stroke:#181818;stroke-width:0.71;" x1="435.6276" x2="435.6276" y1="322.1722" y2="326.4322"/><line style="stroke:#181818;stroke-width:0.71;" x1="435.6276" x2="599.2133" y1="326.4322" y2="326.4322"/><line style="stroke:#181818;stroke-width:0.71;" x1="599.2133" x2="599.2133" y1="326.4322" y2="336.3722"/><polygon fill="#181818" points="596.3733,329.2722,599.2133,336.3722,602.0533,329.2722,599.2133,332.1122" style="stroke:#181818;stroke-width:0.71;"/><line style="stroke:#181818;stroke-width:0.71;" x1="643.9599" x2="643.9599" y1="340.6322" y2="344.1822"/><line style="stroke:#181818;stroke-width:0.71;" x1="643.9599" x2="490.0799" y1="344.1822" y2="344.1822"/><line style="stroke:#181818;stroke-width:0.71;" x1="490.0799" x2="490.0799" y1="344.1822" y2="354.8322"/><polygon fill="#181818" points="487.2399,347.7322,490.0799,354.8322,492.9199,347.7322,490.0799,350.5722" style="stroke:#181818;stroke-width:0.71;"/><line style="stroke:#181818;stroke-width:0.71;" x1="534.4199" x2="714.0412" y1="403.0845" y2="403.0845"/><line style="stroke:#181818;stroke-width:0.71;" x1="714.0412" x2="714.0412" y1="403.0845" y2="425.8045"/><polygon fill="#181818" points="711.2012,418.7045,714.0412,425.8045,716.8812,418.7045,714.0412,421.5445" style="stroke:#181818;stroke-width:0.71;"/><line style="stroke:#181818;stroke-width:0.71;" x1="490.0799" x2="490.0799" y1="520.889" y2="524.439"/><line style="stroke:#181818;stroke-width:0.71;" x1="490.0799" x2="200.5473" y1="524.439" y2="524.439"/><line style="stroke:#181818;stroke-width:0.71;" x1="200.5473" x2="200.5473" y1="524.439" y2="535.089"/><polygon fill="#181818" points="197.7073,527.989,200.5473,535.089,203.3873,527.989,200.5473,530.829" style="stroke:#181818;stroke-width:0.71;"/><line style="stroke:#181818;stroke-width:0.71;" x1="154.2624" x2="145.7424" y1="583.3413" y2="583.3413"/><line style="stroke:#181818;stroke-width:0.71;" x1="145.7424" x2="145.7424" y1="583.3413" y2="596.1213"/><line style="stroke:#181818;stroke-width:0.71;" x1="145.7424" x2="433.2581" y1="596.1213" y2="596.1213"/><line style="stroke:#181818;stroke-width:0.71;" x1="433.2581" x2="433.2581" y1="596.1213" y2="606.0613"/><polygon fill="#181818" points="430.4181,598.9613,433.2581,606.0613,436.0981,598.9613,433.2581,601.8013" style="stroke:#181818;stroke-width:0.71;"/><line style="stroke:#181818;stroke-width:0.71;" x1="246.8321" x2="700.7818" y1="583.3413" y2="583.3413"/><line style="stroke:#181818;stroke-width:0.71;" x1="700.7818" x2="700.7818" y1="583.3413" y2="606.0613"/><polygon fill="#181818" points="697.9418,598.9613,700.7818,606.0613,703.6218,598.9613,700.7818,601.8013" style="stroke:#181818;stroke-width:0.71;"/><line style="stroke:#181818;stroke-width:0.71;" x1="433.2581" x2="433.2581" y1="631.5935" y2="664.9635"/><line style="stroke:#181818;stroke-width:0.71;" x1="433.2581" x2="643.9599" y1="664.9635" y2="664.9635"/><line style="stroke:#181818;stroke-width:0.71;" x1="643.9599" x2="643.9599" y1="664.9635" y2="675.6135"/><polygon fill="#181818" points="641.1199,668.5135,643.9599,675.6135,646.7999,668.5135,643.9599,671.3535" style="stroke:#181818;stroke-width:0.71;"/><line style="stroke:#181818;stroke-width:0.71;" x1="73.8726" x2="73.8726" y1="775.892" y2="779.442"/><line style="stroke:#181818;stroke-width:0.71;" x1="73.8726" x2="490.0799" y1="779.442" y2="779.442"/><line style="stroke:#181818;stroke-width:0.71;" x1="490.0799" x2="490.0799" y1="779.442" y2="790.092"/><polygon fill="#181818" points="487.2399,782.992,490.0799,790.092,492.9199,782.992,490.0799,785.832" style="stroke:#181818;stroke-width:0.71;"/><line style="stroke:#181818;stroke-width:0.71;" x1="643.9599" x2="643.9599" y1="732.3858" y2="741.3728"/><line style="stroke:#181818;stroke-width:0.71;" x1="643.9599" x2="73.8726" y1="741.3728" y2="741.3728"/><line style="stroke:#181818;stroke-width:0.71;" x1="73.8726" x2="73.8726" y1="741.3728" y2="750.3598"/><polygon fill="#181818" points="71.0326,743.2598,73.8726,750.3598,76.7126,743.2598,73.8726,746.0998" style="stroke:#181818;stroke-width:0.71;"/><text fill="#000000" font-family="sans-serif" font-size="12.78" lengthAdjust="spacing" textLength="42.6083" x="51.8584" y="23.0334">System</text><text fill="#000000" font-family="sans-serif" font-size="12.78" lengthAdjust="spacing" textLength="120.761" x="177.3268" y="23.0334">Department Manager</text><text fill="#000000" font-family="sans-serif" font-size="12.78" lengthAdjust="spacing" textLength="88.7798" x="420.4715" y="23.0334">HR Department</text><text fill="#000000" font-family="sans-serif" font-size="12.78" lengthAdjust="spacing" textLength="64.6551" x="659.1043" y="23.0334">Candidates</text><!--SRC=[jLJBRjim4BphA_Re_89y208dG5oWQI053NgagP73LY9LSkL2W3- -IqgEvHTwgYu2nTcTnvBQbqDWjFiiiFASvMLyqRFnncxfrJkD49PPjdz49nijBDDNPTKMVf_bAm_5e2zkGmL-zmWSeSy57T62Ah0p-7EACZKjfWMr00VoiZ8UiIRStn5_mDBY1y9THlBa3rtdtGx73cW2QF7Ynlsh-b9X0GqZXI-EJMsqOkCirSvJb1LaiKoumAxBO2jJNpeGzA-nsQiJlT78TwMLrGD9hvLhEsK7UiSc6COomKbjbR6Zj9MIjfK45IP9PRzf3PDOQYP14h5mKoAw6U1ddxFAcENi2uNUiDeqk9BYskv4ugnJ369j6JuoN8HweVmGPe6Vq8bi7kk_aynNpbQzPk4qR5GpvxvrngQAD-WFAqGdDT7wvvBANiVZMlVDfVLp9UCWOkXndD_g6lu_s9zto1z4NST7lljfTEapgYkQ3tTpl05LHKzjrxW187Rqg6JAAc2alMqoIHne_JRRIdD_bzCcjpxvAC5zTnx0YPM3bln9CZl_FqJaNm00]--></g></svg>