<svg xmlns="http://www.w3.org/2000/svg" xmlns:xlink="http://www.w3.org/1999/xlink" contentStyleType="text/css" data-diagram-type="SEQUENCE" height="658.88px" preserveAspectRatio="none" style="width:714px;height:658px;background:#FFFFFF;" version="1.1" viewBox="0 0 714 658" width="714.26px" zoomAndPan="magnify"><defs/><g><rect fill="none" height="69.9378" style="stroke:#000000;stroke-width:1.065;" width="215.3595" x="7.1" y="93.6576"/><rect fill="none" height="136.5876" style="stroke:#000000;stroke-width:1.065;" width="455.7729" x="7.1" y="217.9686"/><rect fill="none" height="58.1299" style="stroke:#000000;stroke-width:1.065;" width="277.8752" x="379.054" y="386.7129"/><g><title>Client</title><rect fill="#000000" fill-opacity="0.00000" height="540.7815" width="5.68" x="26.1965" y="59.371"/><line style="stroke:#181818;stroke-width:0.355;stroke-dasharray:3.55,3.55;" x1="28.4" x2="28.4" y1="59.371" y2="600.1525"/></g><g><title>System</title><rect fill="#000000" fill-opacity="0.00000" height="540.7815" width="5.68" x="190.9796" y="59.371"/><line style="stroke:#181818;stroke-width:0.355;stroke-dasharray:3.55,3.55;" x1="193.5797" x2="193.5797" y1="59.371" y2="600.1525"/></g><g><title>Payment Gateway</title><rect fill="#000000" fill-opacity="0.00000" height="540.7815" width="5.68" x="330.6371" y="59.371"/><line style="stroke:#181818;stroke-width:0.355;stroke-dasharray:3.55,3.55;" x1="333.3401" x2="333.3401" y1="59.371" y2="600.1525"/></g><g><title>Venue Admin</title><rect fill="#000000" fill-opacity="0.00000" height="540.7815" width="5.68" x="418.1234" y="59.371"/><line style="stroke:#181818;stroke-width:0.355;stroke-dasharray:3.55,3.55;" x1="420.944" x2="420.944" y1="59.371" y2="600.1525"/></g><g><title>Contractor</title><rect fill="#000000" fill-opacity="0.00000" height="540.7815" width="5.68" x="618.817" y="59.371"/><line style="stroke:#181818;stroke-width:0.355;stroke-dasharray:3.55,3.55;" x1="621.1748" x2="621.1748" y1="59.371" y2="600.1525"/></g><g><title>Manager</title><rect fill="#000000" fill-opacity="0.00000" height="540.7815" width="5.68" x="678.6747" y="59.371"/><line style="stroke:#181818;stroke-width:0.355;stroke-dasharray:3.55,3.55;" x1="681.0692" x2="681.0692" y1="59.371" y2="600.1525"/></g><g class="participant participant-head" data-participant="Client"><text fill="#000000" font-family="sans-serif" font-size="9.94" lengthAdjust="spacing" textLength="25.413" x="14.2" y="56.8763">Client</text><ellipse cx="29.0365" cy="9.585" fill="#E2E2F0" rx="5.68" ry="5.68" style="stroke:#181818;stroke-width:0.355;"/><path d="M29.0365,15.265 L29.0365,34.435 M19.8065,20.945 L38.2665,20.945 M29.0365,34.435 L19.8065,45.085 M29.0365,34.435 L38.2665,45.085" fill="none" style="stroke:#181818;stroke-width:0.355;"/></g><g class="participant participant-tail" data-participant="Client"><text fill="#000000" font-family="sans-serif" font-size="9.94" lengthAdjust="spacing" textLength="25.413" x="14.2" y="610.1687">Client</text><ellipse cx="29.0365" cy="618.6984" fill="#E2E2F0" rx="5.68" ry="5.68" style="stroke:#181818;stroke-width:0.355;"/><path d="M29.0365,624.3784 L29.0365,643.5484 M19.8065,630.0584 L38.2665,630.0584 M29.0365,643.5484 L19.8065,654.1984 M29.0365,643.5484 L38.2665,654.1984" fill="none" style="stroke:#181818;stroke-width:0.355;"/></g><g class="participant participant-head" data-participant="System"><rect fill="#E2E2F0" height="23.161" rx="1.775" ry="1.775" style="stroke:#181818;stroke-width:0.355;" width="43.0798" x="172.2797" y="35.5"/><text fill="#000000" font-family="sans-serif" font-size="9.94" lengthAdjust="spacing" textLength="33.1398" x="177.2497" y="51.1963">System</text></g><g class="participant participant-tail" data-participant="System"><rect fill="#E2E2F0" height="23.161" rx="1.775" ry="1.775" style="stroke:#181818;stroke-width:0.355;" width="43.0798" x="172.2797" y="599.4425"/><text fill="#000000" font-family="sans-serif" font-size="9.94" lengthAdjust="spacing" textLength="33.1398" x="177.2497" y="615.1387">System</text></g><g class="participant participant-head" data-participant="Payment"><rect fill="#E2E2F0" height="23.161" rx="1.775" ry="1.775" style="stroke:#181818;stroke-width:0.355;" width="91.1539" x="287.9001" y="35.5"/><text fill="#000000" font-family="sans-serif" font-size="9.94" lengthAdjust="spacing" textLength="81.2139" x="292.8701" y="51.1963">Payment Gateway</text></g><g class="participant participant-tail" data-participant="Payment"><rect fill="#E2E2F0" height="23.161" rx="1.775" ry="1.775" style="stroke:#181818;stroke-width:0.355;" width="91.1539" x="287.9001" y="599.4425"/><text fill="#000000" font-family="sans-serif" font-size="9.94" lengthAdjust="spacing" textLength="81.2139" x="292.8701" y="615.1387">Payment Gateway</text></g><g class="participant participant-head" data-participant="Admin"><rect fill="#E2E2F0" height="23.161" rx="1.775" ry="1.775" style="stroke:#181818;stroke-width:0.355;" width="69.6188" x="386.154" y="35.5"/><text fill="#000000" font-family="sans-serif" font-size="9.94" lengthAdjust="spacing" textLength="59.6788" x="391.124" y="51.1963">Venue Admin</text></g><g class="participant participant-tail" data-participant="Admin"><rect fill="#E2E2F0" height="23.161" rx="1.775" ry="1.775" style="stroke:#181818;stroke-width:0.355;" width="69.6188" x="386.154" y="599.4425"/><text fill="#000000" font-family="sans-serif" font-size="9.94" lengthAdjust="spacing" textLength="59.6788" x="391.124" y="615.1387">Venue Admin</text></g><g class="participant participant-head" data-participant="Contractor"><rect fill="#E2E2F0" height="23.161" rx="1.775" ry="1.775" style="stroke:#181818;stroke-width:0.355;" width="56.3445" x="593.4848" y="35.5"/><text fill="#000000" font-family="sans-serif" font-size="9.94" lengthAdjust="spacing" textLength="46.4045" x="598.4548" y="51.1963">Contractor</text></g><g class="participant participant-tail" data-participant="Contractor"><rect fill="#E2E2F0" height="23.161" rx="1.775" ry="1.775" style="stroke:#181818;stroke-width:0.355;" width="56.3445" x="593.4848" y="599.4425"/><text fill="#000000" font-family="sans-serif" font-size="9.94" lengthAdjust="spacing" textLength="46.4045" x="598.4548" y="615.1387">Contractor</text></g><g class="participant participant-head" data-participant="Manager"><rect fill="#E2E2F0" height="23.161" rx="1.775" ry="1.775" style="stroke:#181818;stroke-width:0.355;" width="49.171" x="656.9292" y="35.5"/><text fill="#000000" font-family="sans-serif" font-size="9.94" lengthAdjust="spacing" textLength="39.231" x="661.8992" y="51.1963">Manager</text></g><g class="participant participant-tail" data-participant="Manager"><rect fill="#E2E2F0" height="23.161" rx="1.775" ry="1.775" style="stroke:#181818;stroke-width:0.355;" width="49.171" x="656.9292" y="599.4425"/><text fill="#000000" font-family="sans-serif" font-size="9.94" lengthAdjust="spacing" textLength="39.231" x="661.8992" y="615.1387">Manager</text></g><g class="message" data-participant-1="Client" data-participant-2="System"><polygon fill="#181818" points="185.2996,80.1676,192.3996,83.0076,185.2996,85.8476,188.1396,83.0076" style="stroke:#181818;stroke-width:0.71;"/><line style="stroke:#181818;stroke-width:0.71;" x1="29.0365" x2="189.5596" y1="83.0076" y2="83.0076"/><text fill="#000000" font-family="sans-serif" font-size="9.23" lengthAdjust="spacing" textLength="127.7463" x="34.0065" y="79.2711">Check venue availability(dates)</text></g><path d="M7.1,93.6576 L49.8213,93.6576 L49.8213,100.2542 L42.7213,107.3542 L7.1,107.3542 L7.1,93.6576" fill="#EEEEEE" style="stroke:#000000;stroke-width:1.065;"/><rect fill="none" height="69.9378" style="stroke:#000000;stroke-width:1.065;" width="215.3595" x="7.1" y="93.6576"/><text fill="#000000" font-family="sans-serif" font-size="9.23" font-weight="bold" lengthAdjust="spacing" textLength="10.7713" x="17.75" y="104.3277">alt</text><text fill="#000000" font-family="sans-serif" font-size="7.81" font-weight="bold" lengthAdjust="spacing" textLength="63.8071" x="60.4713" y="103.5054">[Venue available]</text><g class="message" data-participant-1="System" data-participant-2="Client"><polygon fill="#181818" points="36.8465,121.0508,29.7465,123.8908,36.8465,126.7308,34.0065,123.8908" style="stroke:#181818;stroke-width:0.71;"/><line style="stroke:#181818;stroke-width:0.71;" x1="32.5865" x2="193.1096" y1="123.8908" y2="123.8908"/><text fill="#000000" font-family="sans-serif" font-size="9.23" lengthAdjust="spacing" textLength="104.6713" x="41.1065" y="120.1543">Show cost and conditions</text></g><line style="stroke:#000000;stroke-width:0.71;stroke-dasharray:1.42,1.42;" x1="7.1" x2="222.4595" y1="130.2808" y2="130.2808"/><text fill="#000000" font-family="sans-serif" font-size="7.81" font-weight="bold" lengthAdjust="spacing" textLength="78.1191" x="10.65" y="138.7086">[Venue not available]</text><g class="message" data-participant-1="System" data-participant-2="Client"><polygon fill="#181818" points="36.8465,155.0754,29.7465,157.9154,36.8465,160.7554,34.0065,157.9154" style="stroke:#181818;stroke-width:0.71;"/><line style="stroke:#181818;stroke-width:0.71;" x1="32.5865" x2="193.1096" y1="157.9154" y2="157.9154"/><text fill="#000000" font-family="sans-serif" font-size="9.23" lengthAdjust="spacing" textLength="138.0309" x="41.1065" y="154.1789">Suggest alternative date or venue</text></g><g class="message" data-participant-1="Client" data-participant-2="System"><polygon fill="#181818" points="185.2996,182.262,192.3996,185.102,185.2996,187.942,188.1396,185.102" style="stroke:#181818;stroke-width:0.71;"/><line style="stroke:#181818;stroke-width:0.71;" x1="29.0365" x2="189.5596" y1="185.102" y2="185.102"/><text fill="#000000" font-family="sans-serif" font-size="9.23" lengthAdjust="spacing" textLength="94.9185" x="34.0065" y="181.3655">Confirm venue booking</text></g><g class="message" data-participant-1="System" data-participant-2="Payment"><polygon fill="#181818" points="324.9571,204.4786,332.0571,207.3186,324.9571,210.1586,327.7971,207.3186" style="stroke:#181818;stroke-width:0.71;"/><line style="stroke:#181818;stroke-width:0.71;" x1="193.8196" x2="329.2171" y1="207.3186" y2="207.3186"/><text fill="#000000" font-family="sans-serif" font-size="9.23" lengthAdjust="spacing" textLength="122.6175" x="198.7896" y="203.5821">Request prepayment(amount)</text></g><path d="M7.1,217.9686 L49.8213,217.9686 L49.8213,224.5652 L42.7213,231.6652 L7.1,231.6652 L7.1,217.9686" fill="#EEEEEE" style="stroke:#000000;stroke-width:1.065;"/><rect fill="none" height="136.5876" style="stroke:#000000;stroke-width:1.065;" width="455.7729" x="7.1" y="217.9686"/><text fill="#000000" font-family="sans-serif" font-size="9.23" font-weight="bold" lengthAdjust="spacing" textLength="10.7713" x="17.75" y="228.6387">alt</text><text fill="#000000" font-family="sans-serif" font-size="7.81" font-weight="bold" lengthAdjust="spacing" textLength="80.3004" x="60.4713" y="227.8164">[Payment successful]</text><g class="message" data-participant-1="Payment" data-participant-2="System"><polygon fill="#181818" points="201.6296,245.3619,194.5296,248.2019,201.6296,251.0419,198.7896,248.2019" style="stroke:#181818;stroke-width:0.71;"/><line style="stroke:#181818;stroke-width:0.71;" x1="197.3696" x2="332.7671" y1="248.2019" y2="248.2019"/><text fill="#000000" font-family="sans-serif" font-size="9.23" lengthAdjust="spacing" textLength="79.5141" x="205.8896" y="244.4653">Payment confirmed</text></g><g class="message" data-participant-1="System" data-participant-2="Client"><polygon fill="#181818" points="36.8465,267.5785,29.7465,270.4185,36.8465,273.2585,34.0065,270.4185" style="stroke:#181818;stroke-width:0.71;"/><line style="stroke:#181818;stroke-width:0.71;" x1="32.5865" x2="193.1096" y1="270.4185" y2="270.4185"/><text fill="#000000" font-family="sans-serif" font-size="9.23" lengthAdjust="spacing" textLength="109.2908" x="41.1065" y="266.682">Send booking confirmation</text></g><g class="message" data-participant-1="System" data-participant-2="Admin"><polygon fill="#181818" points="412.4434,289.7951,419.5434,292.6351,412.4434,295.4751,415.2834,292.6351" style="stroke:#181818;stroke-width:0.71;"/><line style="stroke:#181818;stroke-width:0.71;" x1="193.8196" x2="416.7034" y1="292.6351" y2="292.6351"/><text fill="#000000" font-family="sans-serif" font-size="9.23" lengthAdjust="spacing" textLength="124.1678" x="198.7896" y="288.8986">Notify venue admin of booking</text></g><line style="stroke:#000000;stroke-width:0.71;stroke-dasharray:1.42,1.42;" x1="7.1" x2="462.8729" y1="299.0251" y2="299.0251"/><text fill="#000000" font-family="sans-serif" font-size="7.81" font-weight="bold" lengthAdjust="spacing" textLength="60.3254" x="10.65" y="307.4529">[Payment failed]</text><g class="message" data-participant-1="Payment" data-participant-2="System"><polygon fill="#181818" points="201.6296,323.8196,194.5296,326.6596,201.6296,329.4996,198.7896,326.6596" style="stroke:#181818;stroke-width:0.71;"/><line style="stroke:#181818;stroke-width:0.71;" x1="197.3696" x2="332.7671" y1="326.6596" y2="326.6596"/><text fill="#000000" font-family="sans-serif" font-size="9.23" lengthAdjust="spacing" textLength="73.3713" x="205.8896" y="322.9231">Payment declined</text></g><g class="message" data-participant-1="System" data-participant-2="Client"><polygon fill="#181818" points="36.8465,346.0363,29.7465,348.8762,36.8465,351.7163,34.0065,348.8762" style="stroke:#181818;stroke-width:0.71;"/><line style="stroke:#181818;stroke-width:0.71;" x1="32.5865" x2="193.1096" y1="348.8762" y2="348.8762"/><text fill="#000000" font-family="sans-serif" font-size="9.23" lengthAdjust="spacing" textLength="147.7431" x="41.1065" y="345.1397">Notify payment failure, suggest retry</text></g><g class="message" data-participant-1="Admin" data-participant-2="System"><polygon fill="#181818" points="201.6296,373.2229,194.5296,376.0629,201.6296,378.9029,198.7896,376.0629" style="stroke:#181818;stroke-width:0.71;"/><line style="stroke:#181818;stroke-width:0.71;" x1="197.3696" x2="420.2534" y1="376.0629" y2="376.0629"/><text fill="#000000" font-family="sans-serif" font-size="9.23" lengthAdjust="spacing" textLength="208.8017" x="205.8896" y="372.3264">Prepare task list (decorations, catering, equipment)</text></g><path d="M379.054,386.7129 L425.3673,386.7129 L425.3673,393.3095 L418.2673,400.4095 L379.054,400.4095 L379.054,386.7129" fill="#EEEEEE" style="stroke:#000000;stroke-width:1.065;"/><rect fill="none" height="58.1299" style="stroke:#000000;stroke-width:1.065;" width="277.8752" x="379.054" y="386.7129"/><text fill="#000000" font-family="sans-serif" font-size="9.23" font-weight="bold" lengthAdjust="spacing" textLength="14.3633" x="389.704" y="397.383">par</text><text fill="#000000" font-family="sans-serif" font-size="7.81" font-weight="bold" lengthAdjust="spacing" textLength="72.4637" x="436.0173" y="396.5607">[Notify contractors]</text><g class="message" data-participant-1="Admin" data-participant-2="Contractor"><polygon fill="#181818" points="613.137,414.1061,620.237,416.9461,613.137,419.7861,615.977,416.9461" style="stroke:#181818;stroke-width:0.71;"/><line style="stroke:#181818;stroke-width:0.71;" x1="420.9634" x2="617.397" y1="416.9461" y2="416.9461"/><text fill="#000000" font-family="sans-serif" font-size="9.23" lengthAdjust="spacing" textLength="87.7391" x="425.9334" y="413.2096">Send task notification</text></g><g class="message" data-participant-1="Admin" data-participant-2="Contractor"><polygon fill="#181818" points="613.137,436.3227,620.237,439.1627,613.137,442.0027,615.977,439.1627" style="stroke:#181818;stroke-width:0.71;"/><line style="stroke:#181818;stroke-width:0.71;" x1="420.9634" x2="617.397" y1="439.1627" y2="439.1627"/><text fill="#000000" font-family="sans-serif" font-size="9.23" lengthAdjust="spacing" textLength="183.6536" x="425.9334" y="435.4262">Send task notification (if multiple contractors)</text></g><g class="message" data-participant-1="Contractor" data-participant-2="System"><polygon fill="#181818" points="201.6296,463.5094,194.5296,466.3494,201.6296,469.1894,198.7896,466.3494" style="stroke:#181818;stroke-width:0.71;"/><line style="stroke:#181818;stroke-width:0.71;" x1="197.3696" x2="620.947" y1="466.3494" y2="466.3494"/><text fill="#000000" font-family="sans-serif" font-size="9.23" lengthAdjust="spacing" textLength="99.0017" x="205.8896" y="462.6128">Confirm task completion</text></g><g class="message" data-participant-1="System" data-participant-2="Admin"><polygon fill="#181818" points="412.4434,485.726,419.5434,488.566,412.4434,491.406,415.2834,488.566" style="stroke:#181818;stroke-width:0.71;"/><line style="stroke:#181818;stroke-width:0.71;" x1="193.8196" x2="416.7034" y1="488.566" y2="488.566"/><text fill="#000000" font-family="sans-serif" font-size="9.23" lengthAdjust="spacing" textLength="130.3197" x="198.7896" y="484.8295">Send report on completed tasks</text></g><rect fill="#EEEEEE" height="2.13" style="stroke:#EEEEEE;stroke-width:0.71;" width="709.6502" x="0" y="509.6143"/><line style="stroke:#000000;stroke-width:0.71;" x1="0" x2="709.6502" y1="509.6143" y2="509.6143"/><line style="stroke:#000000;stroke-width:0.71;" x1="0" x2="709.6502" y1="511.7443" y2="511.7443"/><rect fill="#EEEEEE" height="17.9566" style="stroke:#000000;stroke-width:1.42;" width="90.9639" x="309.3432" y="501.346"/><text fill="#000000" font-family="sans-serif" font-size="9.23" font-weight="bold" lengthAdjust="spacing" textLength="78.4595" x="313.6032" y="514.1461">Event Completion</text><g class="message" data-participant-1="System" data-participant-2="Client"><polygon fill="#181818" points="36.8465,540.0992,29.7465,542.9392,36.8465,545.7792,34.0065,542.9392" style="stroke:#181818;stroke-width:0.71;"/><line style="stroke:#181818;stroke-width:0.71;" x1="32.5865" x2="193.1096" y1="542.9392" y2="542.9392"/><text fill="#000000" font-family="sans-serif" font-size="9.23" lengthAdjust="spacing" textLength="74.4034" x="41.1065" y="539.2027">Request feedback</text></g><g class="message" data-participant-1="Client" data-participant-2="System"><polygon fill="#181818" points="185.2996,562.3158,192.3996,565.1558,185.2996,567.9958,188.1396,565.1558" style="stroke:#181818;stroke-width:0.71;"/><line style="stroke:#181818;stroke-width:0.71;" x1="29.0365" x2="189.5596" y1="565.1558" y2="565.1558"/><text fill="#000000" font-family="sans-serif" font-size="9.23" lengthAdjust="spacing" textLength="57.9624" x="34.0065" y="561.4193">Submit review</text></g><g class="message" data-participant-1="System" data-participant-2="Manager"><polygon fill="#181818" points="672.9947,584.5325,680.0947,587.3725,672.9947,590.2125,675.8347,587.3725" style="stroke:#181818;stroke-width:0.71;"/><line style="stroke:#181818;stroke-width:0.71;" x1="193.8196" x2="677.2547" y1="587.3725" y2="587.3725"/><text fill="#000000" font-family="sans-serif" font-size="9.23" lengthAdjust="spacing" textLength="88.2574" x="198.7896" y="583.6359">Send feedback report</text></g><!--SRC=[bLFBZjim3BphAuYS4Y3zWG0fK0H5JrqK3R1tHgQpH6J9bMG7_llgwTZTR8lw9DEZcU6GHkcDXPDYqbxqQ3rBxb5xs9mdvwdR03h8n_Nd7pXruGvyGqztd1AkrDR0Lz83mPUcOvr0wRI6d8ps5gEJX7Yyhc7VKUELx4Q8x1S-VIxM3d1w8tc3CMdXYApmmehzj6s2FxSJg3oyBhyg4X2UV3yoPSu3dD_C7QHn7b0tuQ0Rzcoq4wGS5Gvj_BzvXkkL8eloP3Lw7WcY6GXv9v-2TFEq5QDRjbrfvcBCZVLLF0HAoWVuIR-6gD1RwdDjYvqPjC_jrWcvGKfohXrKSbhB2yLQabcPcezQ2ewheGh66CuV-3JY0xmOp-rKXn9hODgveHHdLMv3baNsB_uQaehrX_QANh_W72pjGm1v4fQydNBgoU5A8cPe2Jow6oWEw6rGCpQrv_OWm-HiiBs743htKM0NjxEAodbdNN8t2poMkUIN57IynV8Htd_WOSijT8Fot2jQ2k_AHisLPrkLwAJfmjqa_cvgIJIaOQo785QWb8qu8Ov7-3h6V4yp2HoFulquwdgsHCq5vUt9gf-7IyTnC2FJVK5H_lHYfX8KL-8t]--></g></svg>